# Blender v2.80 (sub 75) OBJ File: ''
# www.blender.org
mtllib Stone_1.mtl
o Cube
v 1.507624 0.830288 -1.476383
v 1.507624 -0.834379 -1.476383
v 1.507624 0.830288 1.516702
v 1.507624 -0.834379 1.516702
v -1.493810 0.830288 -1.476383
v -1.493810 -0.834379 -1.476383
v -1.493810 0.830288 1.516702
v -1.493810 -0.834379 1.516703
v -1.822671 -1.016773 0.020160
v 0.006907 -1.016773 -1.804329
v 1.836485 -0.002046 -1.804329
v -1.822671 -0.002046 1.844648
v 1.836485 -0.002046 1.844648
v -1.822671 -0.002046 -1.804329
v 0.006907 1.012682 1.844648
v 1.836485 1.012682 0.020160
v 0.006907 -1.016773 1.844648
v -1.822671 1.012682 0.020160
v 0.006907 1.012682 -1.804329
v 1.836485 -1.016773 0.020160
v 0.006907 1.395453 0.020160
v 0.006907 -0.002046 2.532873
v -2.512815 -0.002046 0.020160
v 0.006907 -1.399544 0.020160
v 2.526629 -0.002046 0.020160
v 0.006907 -0.002046 -2.492554
vt 0.375000 0.000000
vt 0.500000 0.000000
vt 0.500000 0.125000
vt 0.375000 0.125000
vt 0.625000 0.000000
vt 0.625000 0.125000
vt 0.625000 0.250000
vt 0.500000 0.250000
vt 0.375000 0.250000
vt 0.375000 0.250000
vt 0.500000 0.250000
vt 0.500000 0.375000
vt 0.375000 0.375000
vt 0.625000 0.250000
vt 0.625000 0.375000
vt 0.625000 0.500000
vt 0.500000 0.500000
vt 0.375000 0.500000
vt 0.500000 0.625000
vt 0.375000 0.625000
vt 0.625000 0.625000
vt 0.625000 0.750000
vt 0.500000 0.750000
vt 0.375000 0.750000
vt 0.500000 0.750000
vt 0.500000 0.875000
vt 0.375000 0.875000
vt 0.625000 0.750000
vt 0.625000 0.875000
vt 0.625000 1.000000
vt 0.500000 1.000000
vt 0.375000 1.000000
vt 0.125000 0.500000
vt 0.250000 0.500000
vt 0.250000 0.625000
vt 0.125000 0.625000
vt 0.375000 0.500000
vt 0.375000 0.625000
vt 0.375000 0.750000
vt 0.250000 0.750000
vt 0.125000 0.750000
vt 0.625000 0.500000
vt 0.750000 0.500000
vt 0.750000 0.625000
vt 0.625000 0.625000
vt 0.875000 0.500000
vt 0.875000 0.625000
vt 0.875000 0.750000
vt 0.750000 0.750000
vn 0.1819 0.9662 -0.1824
vn -0.1819 0.9662 -0.1824
vn -0.1819 0.9662 0.1824
vn 0.1819 0.9662 0.1824
vn 0.2776 -0.5005 0.8200
vn 0.2776 0.5005 0.8200
vn -0.2776 0.5005 0.8200
vn -0.2776 -0.5005 0.8200
vn -0.8191 -0.5014 0.2789
vn -0.8191 0.5014 0.2789
vn -0.8191 0.5014 -0.2789
vn -0.8191 -0.5014 -0.2789
vn -0.1819 -0.9662 -0.1824
vn 0.1819 -0.9662 -0.1824
vn 0.1819 -0.9662 0.1824
vn -0.1819 -0.9662 0.1824
vn 0.8191 -0.5014 -0.2789
vn 0.8191 0.5014 -0.2789
vn 0.8191 0.5014 0.2789
vn 0.8191 -0.5014 0.2789
vn -0.2776 -0.5005 -0.8200
vn -0.2776 0.5005 -0.8200
vn 0.2776 0.5005 -0.8200
vn 0.2776 -0.5005 -0.8200
usemtl Material
s off
f 1/1/1 19/2/1 21/3/1 16/4/1
f 19/2/2 5/5/2 18/6/2 21/3/2
f 21/3/3 18/6/3 7/7/3 15/8/3
f 16/4/4 21/3/4 15/8/4 3/9/4
f 4/10/5 13/11/5 22/12/5 17/13/5
f 13/11/6 3/14/6 15/15/6 22/12/6
f 22/12/7 15/15/7 7/16/7 12/17/7
f 17/13/8 22/12/8 12/17/8 8/18/8
f 8/18/9 12/17/9 23/19/9 9/20/9
f 12/17/10 7/16/10 18/21/10 23/19/10
f 23/19/11 18/21/11 5/22/11 14/23/11
f 9/20/12 23/19/12 14/23/12 6/24/12
f 6/24/13 10/25/13 24/26/13 9/27/13
f 10/25/14 2/28/14 20/29/14 24/26/14
f 24/26/15 20/29/15 4/30/15 17/31/15
f 9/27/16 24/26/16 17/31/16 8/32/16
f 2/33/17 11/34/17 25/35/17 20/36/17
f 11/34/18 1/37/18 16/38/18 25/35/18
f 25/35/19 16/38/19 3/39/19 13/40/19
f 20/36/20 25/35/20 13/40/20 4/41/20
f 6/42/21 14/43/21 26/44/21 10/45/21
f 14/43/22 5/46/22 19/47/22 26/44/22
f 26/44/23 19/47/23 1/48/23 11/49/23
f 10/45/24 26/44/24 11/49/24 2/28/24
